# xmcd
#
# Track frame offsets: 
#        150
#        29444
#        53169
#        101309
#        139233
#        151654
#        181141
#
# Disc length: 2644 seconds
#
# Revision: 0
# Processed by: cddbd v1.5.2PL0 Copyright (c) Steve Scherf et al.
# Submitted via: ExactAudioCopy v1.0b2
#
DISCID=4e0a5207
DTITLE=Rahmlee - Rise Of The Phoenix
DYEAR=1981
DGENRE=Jazz+Funk
TTITLE0=Heartbreaker
TTITLE1=Basin Street Brass - Down In The Storyville
TTITLE2=Rise Of The Phoenix I (Birth and Consumption)
TTITLE3=Never Give Up On You
TTITLE4=You Know What I Mean
TTITLE5=Think
TTITLE6=Rise Of The Phoenix II (Rebirth and Immortality)
EXTD=
EXTT0=
EXTT1=
EXTT2=
EXTT3=
EXTT4=
EXTT5=
EXTT6=
PLAYORDER=
